<svg fill="none" height="20" viewBox="0 0 18 20" width="18" xmlns="http://www.w3.org/2000/svg">
    <path clip-rule="evenodd"
        d="M9 0L18 7V17C18 18.657 16.657 20 15 20H3C1.343 20 0 18.657 0 17V7L9 0ZM9 7.5C7.07 7.5 5.5 9.07 5.5 11C5.5 12.93 7.07 14.5 9 14.5C10.93 14.5 12.5 12.93 12.5 11C12.5 9.07 10.93 7.5 9 7.5ZM9 8.5C10.378 8.5 11.5 9.622 11.5 11C11.5 12.378 10.378 13.5 9 13.5C7.622 13.5 6.5 12.378 6.5 11C6.5 9.622 7.622 8.5 9 8.5Z"
        fill="#000000" fill-rule="evenodd" />
</svg>
