<svg fill="none" height="20" viewBox="0 0 18 20" width="18" xmlns="http://www.w3.org/2000/svg">
    <path clip-rule="evenodd"
        d="M8.03845 0.534195C8.63719 0.20156 9.36451 0.198457 9.96607 0.525973L16.9563 4.33178C17.5996 4.68202 18 5.35587 18 6.08832V13.8232C18 14.5495 17.6062 15.2188 16.9713 15.5715L9.96155 19.4658C9.36281 19.7984 8.63549 19.8015 8.03393 19.474L1.04366 15.6682C0.400379 15.318 0 14.6441 0 13.9117V6.17681C0 5.45047 0.393784 4.78123 1.02871 4.42849L8.03845 0.534195ZM9 6.5C7.07 6.5 5.5 8.07 5.5 10C5.5 11.93 7.07 13.5 9 13.5C10.93 13.5 12.5 11.93 12.5 10C12.5 8.07 10.93 6.5 9 6.5ZM9 7.5C10.378 7.5 11.5 8.622 11.5 10C11.5 11.378 10.378 12.5 9 12.5C7.622 12.5 6.5 11.378 6.5 10C6.5 8.622 7.622 7.5 9 7.5Z"
        fill="#000" fill-rule="evenodd" />
</svg>
