<svg fill="none" height="20" viewBox="0 0 20 20" width="20" xmlns="http://www.w3.org/2000/svg">
    <path clip-rule="evenodd"
        d="M6.97738 0.473408C7.12537 0.426549 7.28633 0.455824 7.41147 0.547677L9.36986 1.98516C9.49819 2.07936 9.574 2.22904 9.574 2.38823V4.10384C9.574 4.23648 9.62671 4.36368 9.72052 4.45746L11.795 6.53109C11.9649 6.70099 12.2317 6.72593 12.4303 6.59049L14.324 5.29839C14.3833 5.25794 14.4506 5.23072 14.5214 5.2186L18.0578 4.61256C18.2545 4.57884 18.4535 4.66481 18.5569 4.83559C19.47 6.34411 20 8.10874 20 10.001C20 15.523 15.523 20.001 10 20.001C7.14823 20.001 4.57971 18.8033 2.75874 16.8885C2.55522 16.6745 2.59987 16.3328 2.84217 16.1639L5.32843 14.4314C5.42866 14.3616 5.49985 14.2574 5.52856 14.1387L6.48568 10.1803C6.52684 10.0101 6.47592 9.83068 6.35145 9.70746L4.76234 8.13428C4.63529 8.0085 4.58506 7.82447 4.6306 7.65159L5.52601 4.25216C5.55993 4.1234 5.54109 3.98644 5.47367 3.87162L4.4995 2.21265C4.3676 1.98802 4.42955 1.69857 4.64946 1.55894C5.36864 1.10229 6.14928 0.735619 6.97738 0.473408ZM10.5569 8.84744C10.3594 8.83501 10.1731 8.94028 10.0819 9.11592L8.58269 12.0012C8.43575 12.284 8.58732 12.6302 8.89477 12.7141L10.9395 13.2719C11.173 13.3356 11.3274 13.5575 11.3059 13.7986L10.9587 17.701C10.9217 18.1177 11.3822 18.393 11.7316 18.163L14.5516 16.3072C14.6591 16.2365 14.7351 16.1271 14.764 16.0017L15.2089 14.0707C15.2286 13.9851 15.2705 13.9062 15.3304 13.8419L16.3397 12.7596C16.5365 12.5485 16.5143 12.2151 16.2913 12.0321L15.5857 11.453C15.5034 11.3854 15.4448 11.2934 15.4185 11.1902L14.98 9.4725C14.9263 9.26237 14.7434 9.11077 14.5269 9.09716L10.5569 8.84744ZM10.6689 10.1549C10.7601 9.97927 10.9464 9.874 11.1439 9.88639L13.738 10.0492C13.9544 10.0628 14.1374 10.2143 14.1911 10.4244L14.5315 11.7554C14.5578 11.8585 14.6163 11.9504 14.6984 12.0179L14.8336 12.1289C15.0565 12.3121 15.0785 12.6454 14.8817 12.8563L14.4165 13.355C14.3566 13.4192 14.3146 13.4981 14.2949 13.5837L13.879 15.3861C13.8501 15.5112 13.7742 15.6204 13.667 15.6911L12.9121 16.1887C12.5627 16.4191 12.1018 16.1438 12.1389 15.7269L12.3769 13.0528C12.3984 12.8116 12.2439 12.5897 12.0103 12.526L10.3541 12.0749C10.0465 11.9911 9.89481 11.6448 10.0418 11.362L10.6689 10.1549ZM3.02796 2.84171C3.25167 2.62384 3.61587 2.68409 3.77414 2.95328L4.40047 4.01851C4.46801 4.13339 4.4869 4.27048 4.45295 4.39934L3.51567 7.95642C3.47009 8.12939 3.52039 8.31353 3.64757 8.43931L5.24632 10.0205C5.37087 10.1437 5.42187 10.3231 5.38076 10.4934L4.64654 13.5345C4.61784 13.6534 4.5466 13.7576 4.44628 13.8275L2.1893 15.3995C1.96231 15.5576 1.64894 15.502 1.50288 15.2671C0.551783 13.7373 0 11.9344 0 10C0 7.19085 1.16335 4.65767 3.02796 2.84171ZM10 0C12.8045 0 15.3381 1.15421 17.1538 3.01337C17.4218 3.28787 17.258 3.73465 16.8798 3.79954L14.2402 4.25246C14.1728 4.26403 14.1085 4.28931 14.0512 4.32675L12.549 5.30877C12.3509 5.43826 12.0891 5.41115 11.9218 5.24381L10.7204 4.04245C10.6267 3.94868 10.574 3.8215 10.574 3.68889V1.88032C10.574 1.72108 10.4981 1.57136 10.3697 1.47716L9.50099 0.839883C9.14088 0.575717 9.28376 0.0195296 9.73013 0.00457567C9.81969 0.00157518 9.90964 0 10 0Z"
        fill="#000000" fill-rule="evenodd" />
</svg>
